<svg width="18" height="27" viewBox="0 0 18 27" fill="none" xmlns="http://www.w3.org/2000/svg">
<path d="M4.51906 18.2689H13.4059C13.7072 18.2689 13.9708 18.045 14.0084 17.7465C14.0461 17.1868 14.1214 17.0375 14.1591 16.9629C14.5356 16.3286 14.9875 15.7316 15.4017 15.1719C16.7197 13.3063 18 11.5526 18 8.94072C18 6.40347 16.908 3.97815 14.9875 2.26177C13.067 0.58271 10.5064 -0.238166 7.90812 0.0603341C3.42703 0.58271 -0.0373519 4.50053 0.000304354 8.97803C0.0379606 11.5899 1.28062 13.3063 2.59859 15.1346C3.0128 15.6943 3.42703 16.2913 3.84124 16.9256C3.8789 17.0002 3.95421 17.1495 3.99187 17.7092C3.95421 18.0077 4.21781 18.2689 4.51906 18.2689ZM3.50234 14.463C2.22202 12.7093 1.12999 11.1795 1.12999 8.94072C1.09234 5.06022 4.10484 1.62746 7.98343 1.17971C10.2428 0.918523 12.4269 1.59015 14.1214 3.08265C15.7783 4.53784 16.7573 6.66466 16.7573 8.8661C16.7573 11.1048 15.6653 12.6347 14.385 14.4257C13.9708 15.0227 13.5189 15.6197 13.1047 16.2913C12.9917 16.5152 12.9164 16.7764 12.8411 17.0375H5.04624C5.00859 16.739 4.93328 16.4779 4.78265 16.2913C4.36843 15.657 3.95421 15.06 3.50234 14.463Z" fill="#C7C5C5"/>
<path d="M8.6986 5.69344e-07H1.16734C0.527188 5.69344e-07 5.74589e-07 0.522376 5.74589e-07 1.15669C5.74589e-07 1.791 0.527188 2.31338 1.16734 2.31338H8.6986C9.33875 2.31338 9.86594 1.791 9.86594 1.15669C9.86594 0.522376 9.33875 5.69344e-07 8.6986 5.69344e-07Z" transform="translate(4.02954 18.866)" fill="#C7C5C5"/>
<path d="M9.86594 1.15669C9.86594 0.522377 9.33875 -1.13869e-06 8.6986 -1.13869e-06H1.16734C0.527188 -1.13869e-06 5.74589e-07 0.522377 5.74589e-07 1.15669C5.74589e-07 1.791 0.527188 2.31338 1.16734 2.31338H8.6986C9.33875 2.31338 9.86594 1.791 9.86594 1.15669Z" transform="translate(4.02954 21.7764)" fill="#C7C5C5"/>
<path d="M1.16734 2.31338H4.93297C5.57313 2.31338 6.10032 1.791 6.10032 1.15669C6.10032 0.522375 5.57313 0 4.93297 0H1.16734C0.527188 0 5.74589e-07 0.522375 5.74589e-07 1.15669C5.74589e-07 1.791 0.527188 2.31338 1.16734 2.31338Z" transform="translate(5.91211 24.6865)" fill="#C7C5C5"/>
</svg>
