<svg width="31" height="31" viewBox="0 0 31 31" fill="none" xmlns="http://www.w3.org/2000/svg">
<path d="M7.70859 1.50532C7.70859 0.538204 6.91505 -0.144469 5.8948 0.0261992C2.60732 0.82265 8.6488e-07 3.83779 8.6488e-07 7.42182C8.6488e-07 11.0058 2.43727 14.021 5.8948 14.8174C6.85837 14.9881 7.70859 14.3054 7.70859 13.3383C7.70859 10.5507 7.70859 4.46357 7.70859 1.50532Z" transform="translate(7.22461)" fill="#C7C5C5"/>
<path d="M0 13.34C0 14.3072 0.793531 14.9898 1.81379 14.8192C5.10127 14.0227 7.70859 11.0076 7.70859 7.42355C7.70859 3.78263 5.27131 0.824391 1.81379 0.0279398C0.850212 -0.142728 0 0.483054 0 1.50706C0 4.29464 0 10.3818 0 13.34Z" transform="translate(16.0664 16.1545)" fill="#C7C5C5"/>
<path d="M13.2894 7.73695C14.253 7.73695 14.9332 6.9405 14.7631 5.91649C13.9696 2.61691 10.9655 0 7.39461 0C3.82372 0 0.819634 2.44624 0.0261031 5.91649C-0.143939 6.88361 0.536232 7.73695 1.4998 7.73695C4.10712 7.73695 10.342 7.73695 13.2894 7.73695Z" transform="translate(16.2107 7.25122)" fill="#C7C5C5"/>
<path d="M1.4998 4.34031e-07C0.53623 4.34031e-07 -0.143938 0.796452 0.026104 1.82046C0.819635 5.12004 3.82372 7.73695 7.39461 7.73695C10.9655 7.73695 13.9696 5.29071 14.7631 1.82046C14.9332 0.853341 14.253 4.34031e-07 13.2894 4.34031e-07C10.6821 4.34031e-07 4.4472 4.34031e-07 1.4998 4.34031e-07Z" transform="translate(0 16.1826)" fill="#C7C5C5"/>
</svg>
