<svg width="22" height="22" viewBox="0 0 22 22" fill="none" xmlns="http://www.w3.org/2000/svg">
<path d="M22 20.3502C22 21.2614 21.2609 22 20.3502 22H1.65C0.738879 22 0 21.2611 0 20.3502V1.65C0 0.738879 0.738879 0 1.65 0H20.3502C21.2611 0 22 0.738879 22 1.65V20.3502ZM20.959 2.54326C20.959 1.71924 20.2905 1.05082 19.4668 1.05082H2.55305C1.72903 1.05082 1.06085 1.71899 1.06085 2.54326V19.4567C1.06085 20.2805 1.72903 20.9489 2.55305 20.9489H19.4668C20.2903 20.9489 20.959 20.2808 20.959 19.4567V2.54326ZM19.5947 2.54032C19.5947 2.22104 19.3356 1.96219 19.0166 1.96219H16.968C16.6488 1.96219 16.3904 2.22129 16.3904 2.54032V6.81432C16.3904 7.13361 16.649 7.39246 16.968 7.39246H19.0166C19.3359 7.39246 19.5947 7.13336 19.5947 6.81432V2.54032ZM19.0195 6.28537C19.0195 6.53101 18.8534 6.73016 18.6494 6.73016H17.3365C17.1322 6.73016 16.9658 6.53101 16.9658 6.28537V2.99858C16.9658 2.75318 17.1322 2.55403 17.3365 2.55403H18.6494C18.8534 2.55403 19.0195 2.75318 19.0195 2.99858V6.28537ZM12.089 6.57871C12.089 6.50654 12.0305 6.44782 11.9583 6.44782H10.0424C9.96997 6.44782 9.91125 6.50654 9.91125 6.57871V10.0067C9.91125 10.0793 9.96997 10.1378 10.0424 10.1378H11.9583C12.0305 10.1378 12.089 10.0793 12.089 10.0067V6.57871ZM13.5122 14.1821C13.44 14.1821 13.3813 14.2327 13.3813 14.2954V15.9515C13.3813 16.0141 13.44 16.065 13.5122 16.065H16.9404C17.0128 16.065 17.0718 16.0141 17.0718 15.9515V14.2954C17.0718 14.2327 17.0128 14.1821 16.9404 14.1821H13.5122ZM5.05643 14.1821C4.98425 14.1821 4.92553 14.2327 4.92553 14.2954V15.9515C4.92553 16.0141 4.98401 16.065 5.05643 16.065H8.48488C8.5573 16.065 8.61601 16.0141 8.61601 15.9515V14.2954C8.61601 14.2327 8.5573 14.1821 8.48488 14.1821H5.05643ZM2.27169 5.72876L2.60687 5.99715L5.32874 2.59635L4.99355 2.3282L2.27169 5.72876ZM2.25162 4.18396L2.58681 4.45236L4.07215 2.59635L3.73697 2.3282L2.25162 4.18396Z" fill="#C7C5C5"/>
</svg>
